<svg xmlns="http://www.w3.org/2000/svg" xmlns:xlink="http://www.w3.org/1999/xlink" width="50" zoomAndPan="magnify" viewBox="0 0 37.5 37.499999" height="50" preserveAspectRatio="xMidYMid meet" version="1.0"><defs><clipPath id="50dea988d8"><path d="M 1.851562 0 L 35.15625 0 L 35.15625 37 L 1.851562 37 Z M 1.851562 0 " clip-rule="nonzero"/></clipPath><clipPath id="a78d2017d8"><path d="M 6.734375 18.382812 L 9.917969 18.382812 L 9.917969 21.566406 L 6.734375 21.566406 Z M 6.734375 18.382812 " clip-rule="nonzero"/></clipPath><clipPath id="bb1058511d"><path d="M 8.328125 18.382812 C 7.449219 18.382812 6.734375 19.097656 6.734375 19.976562 C 6.734375 20.855469 7.449219 21.566406 8.328125 21.566406 C 9.207031 21.566406 9.917969 20.855469 9.917969 19.976562 C 9.917969 19.097656 9.207031 18.382812 8.328125 18.382812 Z M 8.328125 18.382812 " clip-rule="nonzero"/></clipPath></defs><g clip-path="url(#50dea988d8)"><path fill="#3880e5" d="M 18.648438 2.472656 C 18.816406 1.074219 20.054688 0.167969 21.402344 0.0898438 C 22.875 0 24.914062 1.398438 25.738281 2.453125 C 26.859375 3.882812 27.535156 5.625 28.316406 7.246094 C 30.011719 10.753906 31.1875 14.359375 34.804688 16.113281 C 34.996094 16.210938 35.097656 16.289062 35.113281 16.34375 C 35.144531 16.4375 34.945312 16.46875 34.578125 16.378906 C 30.835938 15.546875 27.25 13.867188 24.25 11.464844 C 21.800781 9.5 18.210938 5.980469 18.648438 2.472656 Z M 1.863281 21.71875 C 1.863281 23.726562 3.011719 25.628906 4.890625 26.417969 C 6.960938 27.285156 9.175781 26.425781 10.980469 25.347656 C 12.003906 24.738281 12.976562 24.050781 14.023438 23.484375 C 14.941406 22.984375 15.898438 22.542969 16.878906 22.160156 C 21.402344 20.390625 26.039062 18.957031 30.636719 20.488281 C 31.160156 20.664062 32.46875 21.078125 31.519531 20.445312 C 31.253906 20.265625 30.960938 20.097656 30.578125 19.90625 C 26.519531 17.851562 22.09375 16.585938 17.628906 15.648438 C 13.453125 14.773438 8.234375 13.957031 4.550781 16.695312 C 2.945312 17.886719 1.863281 19.699219 1.863281 21.71875 Z M 32.316406 25.230469 C 31.121094 25.179688 29.839844 25.273438 28.675781 25.386719 C 26.925781 25.554688 25.203125 25.894531 23.5 26.359375 C 20.769531 27.101562 17.703125 28.457031 16.769531 31.378906 C 16.347656 32.691406 16.480469 34.113281 17.3125 35.238281 C 17.777344 35.867188 18.417969 36.34375 19.140625 36.570312 C 19.605469 36.71875 20.097656 36.765625 20.597656 36.683594 C 23.675781 36.167969 24.28125 32.34375 25.871094 30.203125 C 27.710938 27.71875 29.398438 26.195312 33.613281 25.722656 C 34.0625 25.671875 34.722656 25.597656 33.929688 25.429688 C 33.375 25.304688 32.882812 25.261719 32.316406 25.230469 Z M 32.316406 25.230469 " fill-opacity="1" fill-rule="nonzero"/></g><g clip-path="url(#a78d2017d8)"><g clip-path="url(#bb1058511d)"><path fill="#3880e5" d="M 6.734375 18.382812 L 9.917969 18.382812 L 9.917969 21.566406 L 6.734375 21.566406 Z M 6.734375 18.382812 " fill-opacity="1" fill-rule="nonzero"/></g></g></svg>