<svg xmlns="http://www.w3.org/2000/svg" xmlns:xlink="http://www.w3.org/1999/xlink" width="50" zoomAndPan="magnify" viewBox="0 0 37.5 37.499999" height="50" preserveAspectRatio="xMidYMid meet" version="1.0"><defs><clipPath id="cce95a56e8"><path d="M 1.851562 0 L 35.15625 0 L 35.15625 37 L 1.851562 37 Z M 1.851562 0 " clip-rule="nonzero"/></clipPath><clipPath id="63ac90343d"><path d="M 26.570312 18.382812 L 29.753906 18.382812 L 29.753906 21.566406 L 26.570312 21.566406 Z M 26.570312 18.382812 " clip-rule="nonzero"/></clipPath><clipPath id="1e06135559"><path d="M 28.160156 18.382812 C 27.28125 18.382812 26.570312 19.097656 26.570312 19.976562 C 26.570312 20.855469 27.28125 21.566406 28.160156 21.566406 C 29.039062 21.566406 29.753906 20.855469 29.753906 19.976562 C 29.753906 19.097656 29.039062 18.382812 28.160156 18.382812 Z M 28.160156 18.382812 " clip-rule="nonzero"/></clipPath></defs><g clip-path="url(#cce95a56e8)"><path fill="#3880e5" d="M 18.359375 2.472656 C 18.191406 1.074219 16.953125 0.167969 15.605469 0.0898438 C 14.132812 0 12.09375 1.398438 11.269531 2.453125 C 10.148438 3.882812 9.46875 5.625 8.691406 7.246094 C 6.996094 10.753906 5.816406 14.359375 2.203125 16.113281 C 2.011719 16.210938 1.90625 16.289062 1.894531 16.34375 C 1.863281 16.4375 2.0625 16.46875 2.429688 16.378906 C 6.171875 15.546875 9.757812 13.867188 12.753906 11.464844 C 15.207031 9.5 18.792969 5.980469 18.359375 2.472656 Z M 35.144531 21.71875 C 35.144531 23.726562 33.996094 25.628906 32.117188 26.417969 C 30.046875 27.285156 27.832031 26.425781 26.027344 25.347656 C 25.003906 24.738281 24.03125 24.050781 22.984375 23.484375 C 22.0625 22.984375 21.105469 22.542969 20.128906 22.160156 C 15.605469 20.390625 10.964844 18.957031 6.371094 20.488281 C 5.847656 20.664062 4.535156 21.078125 5.488281 20.445312 C 5.75 20.265625 6.046875 20.097656 6.429688 19.90625 C 10.488281 17.851562 14.914062 16.585938 19.375 15.648438 C 23.550781 14.773438 28.773438 13.957031 32.457031 16.695312 C 34.0625 17.886719 35.144531 19.699219 35.144531 21.71875 Z M 4.691406 25.230469 C 5.882812 25.179688 7.164062 25.273438 8.328125 25.386719 C 10.082031 25.554688 11.804688 25.894531 13.507812 26.359375 C 16.238281 27.101562 19.300781 28.457031 20.238281 31.378906 C 20.65625 32.691406 20.523438 34.113281 19.691406 35.238281 C 19.230469 35.867188 18.589844 36.34375 17.867188 36.570312 C 17.402344 36.71875 16.910156 36.765625 16.40625 36.683594 C 13.328125 36.167969 12.726562 32.34375 11.136719 30.203125 C 9.292969 27.71875 7.609375 26.195312 3.394531 25.722656 C 2.945312 25.671875 2.28125 25.597656 3.078125 25.429688 C 3.628906 25.304688 4.125 25.261719 4.691406 25.230469 Z M 4.691406 25.230469 " fill-opacity="1" fill-rule="nonzero"/></g><g clip-path="url(#63ac90343d)"><g clip-path="url(#1e06135559)"><path fill="#3880e5" d="M 26.570312 18.382812 L 29.753906 18.382812 L 29.753906 21.566406 L 26.570312 21.566406 Z M 26.570312 18.382812 " fill-opacity="1" fill-rule="nonzero"/></g></g></svg>